<svg xmlns="http://www.w3.org/2000/svg" width="135" height="110" viewBox="0 0 135 110" fill="#00843D">
  <title>Missouri S&amp;T</title>
  <g class="sandt">
    <path d="M44.285 85.471c0-5.39 1.97-9.868 5.464-12.931a18.667 18.667 0 0 0-2.084-2.447c-2.99-3.044-8.577-5.578-14.032-7.934-5.46-2.357-10.328-4.052-14.553-7.54-1.807-1.486-2.441-3.291-2.441-5.79 0-6.2 5.263-9.591 13.46-9.591 6.172 0 12.221 2.703 14.711 5.892 2.038 2.613 2.696 4.863 4.626 4.863 1.32 0 1.811-1.085 1.811-2.498L49.894 33.96c-4.988-1.522-12.864-2.176-18.738-2.176-17.616 0-29.582 9.136-29.582 22.727 0 9.896 5.426 17.324 18.282 22l6.696 2.73c9.881 4.05 11.65 6.428 11.65 12.301 0 7.937-6.852 11.144-16.048 11.144-8.203 0-15.154-4.565-17.48-10.112-.882-2.392-1.838-2.942-3.023-2.667-1.085.248-1.786 1.088-1.629 2.234.104.754 2.328 14.38 2.328 14.38 7.751 2.502 13.518 3.48 20.718 3.48 11.859 0 21.424-4.406 26.595-11.527-3.431-3.306-5.378-7.76-5.378-13.002Zm88.32-52.365H72.14s-2.391 14.331-2.391 14.884c0 .995.77 1.657 1.872 1.657 1.213 0 1.17-.725 2.754-2.87 3.123-4.227 6.511-5.974 15.321-5.974l3.755-.048-.362 25.816c5.593 1.42 9.853 4.794 11.66 9.88.686 1.932.745 3.673.654 4.718-.155 1.766-.666 2.753-1.248 3.377-.682.728-1.562 1.072-2.76.615-.953-.367-5.403-3.38-8.327-4.133l.008 14.743c0 1.848-.09 7.363-5.402 7.841l-1.308.136s-1.989.101-1.989 2.199c0 2.162 1.989 2.223 1.989 2.223h32.014s1.989-.061 1.989-2.223c0-2.098-1.989-2.199-1.989-2.199l-1.309-.136c-5.642-.177-5.4-6.717-5.4-6.717l-.545-56.14 3.924.048c8.809 0 12.198 1.747 15.322 5.974 1.582 2.145 1.541 2.87 2.753 2.87 1.102 0 1.873-.662 1.873-1.657 0-.553-2.393-14.884-2.393-14.884Z"/>
    <path d="M83.776 77.055c-.003.021-.004.05-.004.05l.004-.006v10.105c-2.626-2.351-5.58-5.624-8.397-8.85a.096.096 0 0 1 .03-.016l-.004-.003c2.263-1.178 4.83-1.985 7.58-2.363.338.053.791.262.791 1.002v.08ZM71.004 95.65c-7.351 0-12.486-5.637-12.486-13.71 0-2.394.748-4.358 1.48-5.67 6.274 8.508 10.014 12.617 16.548 18.169-.957.412-3.237 1.211-5.542 1.211Zm30.562-16.144c-1.403-5.153-7.052-9.613-14.85-9.613-6.064 0-10.68 2.882-13.106 6.328-.084-.1-.181-.22-.27-.325-1.514-1.912-5.792-7.273-6.912-8.692-.025-.036-.06-.085-.084-.122l-.012.002-.18-.231c-2.825-3.8-.66-7.782 2.742-8.256 1.881-.262 3.617.52 4.567 1.13.813.518 1.833.984 2.617 0 .888-1.116-.298-2.553-1.337-3.357-.673-.522-3.18-2.391-7.423-2.391-6.986 0-11.983 4.241-11.983 11.034 0 2.115.591 4.054 1.54 6.003l.02.008c.318.702.64 1.309.963 1.74-6.238 1.64-9.501 6.49-9.501 12.706 0 9.14 7.314 15.197 19.328 15.197 4.9 0 9.042-1.259 12.262-2.819.5.288 2.086 2.358 5.1 2.358 4.097 0 3.822-3.856 3.822-4.76V76.735c.049-.353.263-.763.913-.78 4.124.566 7.83 2.124 10.727 4.376 0 0 .373.371.805.104.24-.15.377-.405.252-.93Z"/>
  </g>
  <g class="missouri">
    <path d="M31.414 20.078V11.21c0-.627-.03-2.35-.06-3.393-.057-3.182-.057-3.182-1.513-3.182h-.66V3.59h7.66v1.045h-1.07c-.805 0-.797.68-.797.8v10.388c0 .716.027 2.382.06 3.392.058 3.184.058 3.184 1.509 3.184h1.068v1.04h-8.034v-1.04h1.036c.684 0 .8-.242.8-.502v-1.819ZM50.66 5.79v.3c-.03.357-.15.51-.415.51-.267 0-.387-.123-.475-.51-.18-1.04-1.69-1.816-3.56-1.816-2.343 0-4.093 1.433-4.093 3.335 0 1.637.861 2.53 3.38 3.45l1.573.596c3.679 1.369 5.19 3.095 5.19 5.923 0 3.749-3.293 6.46-7.798 6.46-1.723 0-3.5-.3-5.161-.892l-.415-2.175c-.121-.715-.121-.654-.121-.862 0-.298.15-.447.445-.447.3 0 .387.118.566.626.474 1.399 2.551 2.47 4.863 2.47 2.729 0 4.686-1.64 4.686-3.93 0-1.784-1.096-2.914-3.828-3.93l-1.57-.563c-3.145-1.16-4.626-2.888-4.626-5.417 0-3.449 3.115-5.922 7.444-5.922 1.454 0 2.788.208 3.795.594l.12 2.2Zm14.767 0v.3c-.03.357-.146.51-.414.51-.266 0-.386-.123-.474-.51-.18-1.04-1.69-1.816-3.559-1.816-2.341 0-4.093 1.433-4.093 3.335 0 1.637.86 2.53 3.379 3.45l1.574.596c3.676 1.369 5.19 3.095 5.19 5.923 0 3.749-3.292 6.46-7.8 6.46-1.72 0-3.5-.3-5.16-.892l-.416-2.175c-.117-.715-.117-.654-.117-.862 0-.298.146-.447.442-.447.299 0 .385.118.566.626.472 1.399 2.55 2.47 4.865 2.47 2.728 0 4.683-1.64 4.683-3.93 0-1.784-1.097-2.914-3.827-3.93l-1.571-.563c-3.141-1.16-4.626-2.888-4.626-5.417 0-3.449 3.114-5.922 7.445-5.922 1.453 0 2.787.208 3.795.594l.118 2.2Zm6.585 6.61c0 6.193 3.053 10.507 7.413 10.507 3.739 0 6.052-3.127 6.052-8.186 0-6.249-2.995-10.594-7.294-10.594-3.889 0-6.171 3.066-6.171 8.273Zm17.083.774c0 6.307-4.48 10.863-10.618 10.863-6.136 0-10.053-3.928-10.053-10.06 0-6.4 4.476-10.98 10.705-10.98 6.11 0 9.966 3.924 9.966 10.177Zm26.338.208c-.329 0-.268 0-1.099-.027V5.346c-.03-.091.091-.534.89-.534 1.248 0 1.809.09 2.491.443 1.513.778 2.462 2.411 2.462 4.229 0 2.44-1.748 3.898-4.744 3.898Zm17.663 9.017c-1.453 0-1.453 0-1.512-3.184a147.6 147.6 0 0 1-.059-3.392V5.435c0-.12.051-.305.021-.366 0 0 .097-.434.78-.434h1.067V3.59h-8.069v1.045h1.069c1.452 0 1.452 0 1.511 3.182.031 1.043.061 2.767.061 3.393v10.687c0 .217-.12.502-.802.502h-.786c-.892 0-1.483-.536-3.026-2.619-.952-1.277-.86-1.157-2.576-3.778l-1.459-2.204c2.701-.416 4.391-2.232 4.391-4.732 0-1.694-.741-3.184-2.076-4.164-1.246-.956-2.639-1.312-4.982-1.312h-13.294v1.045h1.068c1.454 0 1.454 0 1.515 3.182.027.983.056 2.74.056 3.393v3.098c0 3.597-.207 4.73-1.125 6.038-.947 1.399-2.787 2.234-4.895 2.234-2.105 0-3.765-.893-4.537-2.383-.592-1.186-.743-2.382-.743-5.624V5.435c0-.12-.065-.8.802-.8h1.04V3.59h-7.828v1.045h.858c1.454 0 1.454 0 1.512 3.182.03.983.06 2.65.06 3.393v4.553c0 3.628.384 5 1.749 6.28 1.334 1.25 3.562 1.994 5.992 1.994 2.638 0 5.01-.865 6.464-2.383 1.45-1.515 1.925-3.212 1.925-6.813V5.435c0-.12-.065-.8.802-.8h1.135c1.454 0 1.454 0 1.513 3.182.027.983.058 2.74.058 3.393v10.028c0 .809.05 1.161-.8 1.161h-1.038v1.04h7.92v-1.04h-1.01c-1.392 0-1.392 0-1.454-3.184-.03-.982-.06-2.648-.06-3.392v-1.367c.447.028.743.056 1.038.056h.86l.801 1.31.417.805.414.8.446.835a37.53 37.53 0 0 0 1.867 3.037c.622.92 1.158 1.608 1.454 1.873.237.21.444.267 1.185.267h11.033v-1.04h-.753Zm-105.289-.055c-1.644 0-1.61-.06-1.752-3.26-.032-.88-.07-3.342-.07-4.64V2.18c0-.144-.095-.95.913-.95h1.19V0h-5.727c-.316.63-.492 1.017-.91 2.005-.597 1.474-.561 1.368-1.509 3.512l-2.24 5.307-.28.633-.277.632-.284.67s-.385.946-.874 2.07c-.456 1.125-.525 1.27-.806 1.933L7.337 0H.65v1.23h.557c2.03 0 2.45.878 2.45 5.06v.808l-.035.811v8.116c-.033 2.778-.033 2.393-.033 3.447v2.283c0 .386-.142.589-.948.589H1.38v1.095h6.8v-1.095H6.987c-1.611 0-1.65-.164-1.787-2.205-.105-1.229-.174-3.688-.174-5.695V9.908c.033-4.322.033-3.967.104-5.094l8.027 17.603h1.06l7.9-18.27v17.465c0 .268-.143.732-.948.732h-1.227v1.095h8.683v-1.095h-.818Z"/>
  </g>
</svg>
