<svg xmlns="http://www.w3.org/2000/svg" width="436" height="306" viewBox="0 0 436 306"><g fill="none" fill-rule="evenodd"><path fill="#FFF" fill-rule="nonzero" d="M188 140v34h60v-34h-60zm56.1 30h-52.2v-26h52.2v26zM223 155.9h-8.3v4.2h8.3v-4.2zm17 5.8h-8.8l8.8-9.9v-3.5h-15.3v4.1h8.6l-8.9 9.9v3.6H240v-4.2zm-37.6 1h6.8l1.3 3.2h5.2l-7.5-17.8h-4.7l-7.5 17.8h5.1l1.3-3.2zm3.4-8.8l2 5h-4l2-5zm125 14.1a3.4 3.4 0 11-4.8 4.8l-8-9.5a4.4 4.4 0 01-1.3-2.9c-6.17 5.257-15.389 4.705-20.888-1.25-5.498-5.955-5.314-15.19.417-20.92 5.732-5.732 14.966-5.916 20.921-.418 5.955 5.499 6.507 14.718 1.25 20.888a4.4 4.4 0 012.9 1.3l9.5 8zm-23.8-9c5.523 0 10-4.477 10-10s-4.477-10-10-10-10 4.477-10 10 4.477 10 10 10zm-195.5-25c6.904 0 12.5 5.596 12.5 12.5s-5.596 12.5-12.5 12.5a15.5 15.5 0 01-4.3-.7l-3.2 3.2h-5v5h-5v5h-5v2.5h-2.5a2.5 2.5 0 01-2.5-2.5V164l15.2-15.2a17.9 17.9 0 01-.2-2.3 12.5 12.5 0 0112.5-12.5zm3.7 12.5a3.8 3.8 0 101.229-7.5 3.8 3.8 0 00-1.229 7.5z"/><path fill="#8D8E90" fill-rule="nonzero" d="M40 159.6L20 144 0 159.6v-6.4l20-15.5 20 15.5v6.4zm-5-.6v15H25v-10H15v10H5v-15l15-11.2L35 159z"/><path fill="#5E0009" fill-rule="nonzero" d="M225.5 266.7c0-2.5-.6-6.3-3.9-7.1v-.6l4.8.2 4-.2v.6c-2.7.8-3.6 4.6-3.6 7.1v6.2c-.1 6.7-3.5 9.7-10.4 9.7-5 0-10.7-1.7-10.7-7v-12c0-3-.3-3.8-1.8-4v-.6l5.3.2 5.5-.2v.6c-1.6.2-2.7 1.3-2.7 4V274c-.1 4 1.6 6.9 5.7 6.9 5.9 0 7.7-2.8 7.7-8.3l.1-5.9zM96.6 291.1c0-1.8-.3-2.8-1.4-3.1v-.5h16.1l1.3 5h-.6a10.4 10.4 0 00-7.8-4h-2.7v7.1h1.7c2.4 0 5-.5 5.8-3h.5v7h-.4c-.5-2.1-3-3-5.9-3h-1.7v3.7c0 2.5.1 4.7 2.2 4.8v.6h-9.3v-.6c2.1-.1 2.2-2.3 2.2-4.8v-9.2zm33.5 7.2c0 4.7-4 7.7-8.4 7.7s-8.5-3-8.5-7.7 4-7.7 8.5-7.7 8.4 3 8.4 7.7zm-12.3 0c0 2.4.6 6.8 3.9 6.8s3.8-4.4 3.8-6.8c0-2.4-.6-6.8-3.8-6.8-3.2 0-3.9 4.4-3.9 6.8zm25 4.5a5.1 5.1 0 01-5 3.2c-3.5 0-5.2-2.4-5.2-5.7v-6.6c0-1-.6-1.2-1.5-1.4v-.5a38.5 38.5 0 005.8-.8c-.1 1.3-.2 3.6-.2 6.3v2.8c0 1.8.5 4.2 2.7 4.2s3.3-2.9 3.3-5.7V294c0-1.1-.5-1.6-1.6-1.8v-.4a57.7 57.7 0 005.8-.8c-.1 3.4-.1 6.9-.1 10.3 0 3.4.4 3.4 1.6 3.9v.4h-4.9l-.7-2.8zm12.1-9a5.1 5.1 0 015-3.2 4.8 4.8 0 015 4.9v7.5a2.1 2.1 0 001.9 2.3v.4h-7.7v-.4a2.1 2.1 0 001.8-2.3v-6.6c0-1.9-.5-4.2-2.8-4.2s-3 3.6-3 5.4v3.3c0 2.3.4 4 1.9 4.4v.4h-7.9v-.4c1.5-.4 1.9-2.1 1.9-4.4v-6c0-1.9-.9-2.5-1.7-2.7v-.4a39.7 39.7 0 005.6-.8v2.8zm28.7 7.5c0 1.5.5 3.6 1.7 3.9v.4h-5l-.6-2.5c-1.1 2.1-2.5 2.9-5 2.9-4.1 0-7.1-3.8-7.1-7.7 0-3.9 3-7.7 7.1-7.7a5.6 5.6 0 014.7 1.9h.1v-3.7c0-1.4-.5-2.1-1.5-2.2v-.4l5.6-.9v16zm-7.7 3.6c2.6 0 3.6-2.3 3.6-6.6s-1-6.6-3.6-6.6-3.7 2.3-3.7 6.6 1.1 6.6 3.7 6.6zm20.5-1.6a5.2 5.2 0 01-4.5 2.7c-2.8 0-5.9-1.1-5.9-4.3 0-3.2 5.5-5.1 9.5-5.1h.6v-1.3c0-2.2-1.2-3.8-3.3-3.8-2.1 0-3.8 1.9-4.6 4.8h-.4l-1.2-4.4a21 21 0 017.3-1.4c3.8 0 6.3 1.5 6.3 6.3v5.6c0 1.3.4 2.4 1.5 2.7v.4H197l-.6-2.2zm-.3-5.8h-.5c-2.7 0-5 1.2-5 4.3 0 1.5.9 3 2.5 3s3-3.1 3-4.9v-2.4zm9.8 8.1c-1.3 0-1.5-1-1.5-2.3v-10.4h-2l.3-1.4c2.3-.3 4.2-2.1 5.5-4h.3v4h3.4l-.5 1.4h-2.9v8.6c0 1.9.3 3.6 2.1 3.7v.4h-4.7zm32.4-7.3c0 4.7-4 7.7-8.5 7.7s-8.4-3-8.4-7.7 3.9-7.7 8.4-7.7 8.5 3 8.5 7.7zm-12.3 0c0 2.4.6 6.8 3.8 6.8 3.2 0 3.9-4.4 3.9-6.8 0-2.4-.6-6.8-3.9-6.8s-3.8 4.4-3.8 6.8zm18.9-4.5h.1a5 5 0 014.9-3.2 4.8 4.8 0 015.1 4.9v7.5a2.1 2.1 0 001.8 2.3v.4h-7.6v-.4c1-.1 1.7-.9 1.7-2.3v-6.6c0-1.9-.5-4.2-2.7-4.2s-3.1 3.6-3.1 5.4v3.3c0 2.3.4 4 1.9 4.4v.4h-7.9v-.4c1.5-.4 1.9-2.1 1.9-4.4v-6c0-1.9-.9-2.5-1.7-2.7v-.4a37.8 37.8 0 005.6-.8v2.8zm-25.6 2.2v4c0 3.3.1 4.9 1.8 5.4v.4l-3.9-.2-3.8.2v-.4c1.7-.6 1.8-2.1 1.8-5.2v-5.1c0-2.1-.1-2.8-1.6-3v-.3c2.2-.3 4.1-.6 5.8-1-.1 1.7-.1 3.4-.1 5.2zm.2-7.9a2.5 2.5 0 01-4.8 0c0-1 1.1-1.8 2.4-1.8 1.3 0 2.4.8 2.4 1.8zm-26.4-23c-1.6 0-2.7 1.4-3.1 4.1h5.8c-.1-2.6-1.2-4.1-2.7-4.1zm-3.1 5.2a6.2 6.2 0 00-.1 1.3c0 4.4 1.9 6.9 4.9 6.9 3 0 4.4-1.8 5.3-5.3l.8.7c-1.2 4-3.7 6-7.6 6-3.9 0-8.1-3.3-8.1-7.9 0-4.6 3.3-7.8 8-7.8s6.9 2.2 7.5 6.1H190zm-65.5-8.4c0 1.1-1 1.9-2.4 1.9a1.9 1.9 0 110-3.7c1.4 0 2.4.8 2.4 1.8zm128.8 7.9v4c0 3.3.1 4.9 1.9 5.4v.4h-7.8v-.4c1.7-.5 1.8-2.1 1.8-5.2v-5.1c0-2.1-.1-2.8-1.6-2.9v-.4a57.3 57.3 0 005.8-1c-.1 1.7-.1 3.4-.1 5.2zm.2-7.9a2.1 2.1 0 01-2.3 1.9 2.2 2.2 0 01-2.4-1.9c0-1 1.1-1.8 2.4-1.8a2.1 2.1 0 012.3 1.8zm68.7 7.9v4c0 3.3 0 4.9 1.8 5.4v.4h-7.8v-.4c1.8-.5 1.8-2.1 1.8-5.2v-5.1c0-2.1-.1-2.8-1.6-2.9v-.4a57.3 57.3 0 005.8-1v5.2zm.2-7.9a2.5 2.5 0 01-4.8 0c0-1 1.1-1.8 2.4-1.8 1.3 0 2.4.8 2.4 1.8zm-285.2 0a2.2 2.2 0 01-2.4 1.9 2.2 2.2 0 01-2.4-1.9c0-1 1.1-1.8 2.4-1.8 1.3 0 2.4.8 2.4 1.8zm309.9 15.4h1.8v.3h-.7v1.9h-.4v-1.9h-.7v-.3zm2.2 0h.5l.6 1.7.6-1.7h.6v2.2h-.4v-1.7l-.6 1.7h-.3l-.6-1.7h-.1v1.7h-.3v-2.2zm-114.8-9.8a5.1 5.1 0 015.1-3.2 4.8 4.8 0 015.1 5v7.5a2.1 2.1 0 001.8 2.4v.4h-7.7v-.4c1-.2 1.7-.9 1.7-2.4v-6.7c0-1.8-.4-4.2-2.7-4.2-2.3 0-3.1 3.6-3.1 5.4v3.4c0 2.4.4 4 1.9 4.5v.4h-8v-.4c1.5-.5 1.9-2.1 1.9-4.5v-6c0-2-1-2.6-1.8-2.8v-.4c1.9-.2 3.7-.4 5.7-.8l.1 2.8zm30 11.5c-.1.4-.4.9-.6.9-.1 0-.3-.2-.6-.9l-5.2-10.2a14.4 14.4 0 00-1.4-2.2c-.3-.4-.6-.5-1.3-.9v-.6l4 .2 4.1-.2v.5c-.7.1-1.7.5-1.7 1.3a2.9 2.9 0 00.3 1l3.6 6.5 2-3.8a7.8 7.8 0 00.9-3.4c.1-.9-.6-1.4-1.7-1.6v-.5l2.8.2 2.8-.2v.5a9 9 0 00-3.5 4.4l-4.5 9zm12-8.5v1.6c0 3.1.9 6.6 4.8 6.6s4.9-2.8 5.5-5.4l.8.5c-1 4-3.8 6.1-8 6.1a7.6 7.6 0 01-7.8-7.8 7.5 7.5 0 017.8-7.8c3.9 0 7.2 2.2 7.4 6.2h-10.5zm5.9-.9c-.1-1.9-.4-4.4-3-4.4s-2.8 2.5-2.9 4.4h5.9zm15.9-.4c-.5-.5-.9-1-1.7-1-.8 0-2.2 2.2-2.2 4.3v2.2c0 2.4.4 4 1.9 4.5v.4h-8v-.4c1.6-.5 2-2.1 2-4.5v-6c0-2-.9-2.6-1.8-2.8v-.4c1.9-.2 3.8-.4 5.8-.8 0 .7-.1 1.6-.1 2.4v1.7h.1c.6-2 2.1-4.5 4.4-4.5h1.3l-1.7 4.9zm14.1.3a4.4 4.4 0 00-4.5-4.3 2.5 2.5 0 00-2.8 2.6c0 1.6 1.5 2.1 4.8 2.6s4.9 1.1 4.9 4.4c0 3.3-4.6 5.1-7.8 5.1a16.9 16.9 0 01-7-1.5l1.5-4.7c.9 2.8 2.6 5.3 5.9 5.3a3.1 3.1 0 003.2-2.8c0-2-2.4-2.2-4.8-2.7s-4.9-1.2-4.8-4.4c.1-3.2 3.9-4.8 7-4.8a21.3 21.3 0 016.1 1.2l-1.3 4.2-.4-.2zm15.9 10c-1.3 0-1.5-1-1.5-2.3 0-1.3.1-3.1.1-4.1v-6.5h-2.1l.3-1.5c2.4-.2 4.3-2.1 5.6-4h.3v4h3.5l-.6 1.5H331v8.8c0 1.9.3 3.6 2.1 3.6v.5h-4.8zm6.8-14.4l4.3.2 4.3-.2v.5c-.8.1-1.7.5-1.7 1.5.027.505.2.992.5 1.4l3.3 6.1 2.5-5.6a3.4 3.4 0 00.4-1.5 2.1 2.1 0 00-1.7-1.9v-.5l2.9.2 3-.2v.5c-1.6.7-2.6 2.4-3.3 3.8l-5.1 9.7c-2.4 4.7-3.4 5.5-7.9 5.8l1.8-4.8.4.2c0 1 1.1 1.6 1.9 1.6a2.2 2.2 0 002.1-2.3 9.9 9.9 0 00-1.1-3.5l-3.7-7.4c-.7-1.6-1.8-2.9-2.9-3.1v-.5zM8.7 281.4v.5H0v-.5c2.8-1.1 3.6-4.3 3.6-10.2v-7c0-3-.2-4.5-2.5-5.2v-.4h8.2c2.3 4.7 4.8 9.4 7.5 14.2l5.6-14.2h8.2v.5c-1.5.2-2.2 1.1-2.2 2.8v11.9c0 5.1.3 7.2 2.6 7.7v.5H19.9v-.5c2.5-.5 2.5-2.8 2.5-7.7V262l-7.9 20.4h-.3c-3-6.6-6.1-13.3-9.3-20.1v8.9c0 6 .6 9.1 3.8 10.2zm28.6-11.6v4c0 3.3 0 4.9 1.8 5.4v.4h-7.8v-.4c1.8-.5 1.9-2.1 1.9-5.2v-5.1c0-2.1-.2-2.8-1.6-2.9v-.4a54.9 54.9 0 005.7-1v5.2zm4.2 3.8h.4c.6 3.5 2.3 5.3 4.8 5.3s3.4-1.2 3.4-2.8c0-1.6-1.2-2.1-3.8-2.7-2.6-.6-5.3-1.6-5.3-4.4 0-2.8 2.6-4.8 7-4.8a14.1 14.1 0 015.8 1.3l-1.3 3.9h-.4c-.8-2.8-2.4-4.3-4.4-4.3a2.6 2.6 0 00-2.8 2.5c0 1.9 1.5 2 4.2 2.6 2.7.6 5.3 1.8 5.3 4.5s-2.8 5.2-7.8 5.2a15 15 0 01-6.7-1.6l1.6-4.7zm15.4 0h.4c.6 3.5 2.3 5.3 4.8 5.3s3.4-1.2 3.4-2.8c0-1.6-1.3-2.1-3.8-2.7-2.5-.6-5.4-1.7-5.4-4.5s2.7-4.8 7.1-4.8a13.6 13.6 0 015.7 1.3l-1.3 3.9h-.3c-.8-2.8-2.5-4.3-4.5-4.3a2.6 2.6 0 00-2.8 2.5c0 1.9 1.5 2 4.3 2.6 2.8.6 5.3 1.8 5.3 4.5s-2.9 5.2-7.8 5.2a14.7 14.7 0 01-6.7-1.6l1.6-4.6zm26.3-1.6c0-4.6-1.4-6.9-4-6.9s-3.9 2.3-3.9 6.9c0 4.6 1.4 7 3.9 7s4-2.4 4-7zm-3.9-7.8c5.1 0 8.5 3.2 8.5 7.8s-3.4 7.8-8.6 7.8c-5.2 0-8.5-3.3-8.5-7.7s3.4-7.9 8.6-7.9zm8.8 1.8v-.4a35.7 35.7 0 005.7-1v8c0 3.8.8 5.6 3 5.6s3.5-2 3.5-5.6v-3.7c0-2.1-.1-2.8-1.6-2.9v-.4a38.5 38.5 0 005.8-1v8.1c0 4 .2 6 1.9 6.4v.4h-5.3c-.2-.9-.5-1.8-.6-2.6a5.2 5.2 0 01-5.1 3c-3.8 0-5.7-2.3-5.7-7v-4c0-2.1-.1-2.8-1.6-2.9zm18.9 13.2c1.7-.5 1.8-2.1 1.8-5.2v-5.1c0-2.1-.1-2.8-1.6-2.9v-.4a35.7 35.7 0 005.7-1v3.5c1.2-2.6 2.8-3.9 4.9-3.9h.6l-1.6 4.7h-.4a1.3 1.3 0 00-1.1-.6c-1.5 0-2.4 1.4-2.4 4.1v1.4c0 3.3.1 4.9 1.9 5.4v.4H107v-.4zm17.3-9.4v4c0 3.3.1 4.9 1.8 5.4v.4h-7.7v-.4c1.7-.5 1.8-2.1 1.8-5.2v-5.1c0-2.1-.1-2.8-1.6-2.9v-.4c2.2-.3 4.1-.6 5.8-1-.1 1.7-.1 3.4-.1 5.2zm7.6 3.8h.4c.9 5 3.9 7.7 8.3 7.7s5.9-1.9 5.9-4.8-2.2-3.2-6.2-4c-4-.8-5.4-1.1-7-2.5a6.1 6.1 0 01-2-4.6c0-4.3 4-7.4 10.7-7.4a22.4 22.4 0 019.1 1.9l-1.6 5.7h-.5c-1-4.2-3.3-6.3-6.9-6.3-3.2 0-5.3 1.8-5.3 4a2.9 2.9 0 001.2 2.4c1.3 1 3.6 1.2 6.9 1.8 4.9 1 7.2 3.1 7.2 6.8 0 3.7-4.3 8.2-11.2 8.2a23.5 23.5 0 01-10.9-2.3l1.9-6.6zm28.2 5.6v.3h-4.9c-1-.5-1.1-1.9-1.1-4.5v-8.9h-1.6l.2-.9a12 12 0 005.2-5h.4c-.1.9-.1 2.2-.1 3.7v1h3.3l-.4 1.2h-2.9v6.5c0 4.1.1 6.1 1.9 6.6zm10.6-8c-3.1 0-4.7 1.4-4.7 4.1 0 2.7.9 3.3 2.3 3.3s3.1-2.2 3.1-6.5v-.9h-.7zm6.8 8.3h-4.8a8.7 8.7 0 01-1-2.4 4.8 4.8 0 01-4.7 2.8c-3.6 0-5.9-2-5.9-4.6 0-2.6 3.4-4.7 10.3-5 0-3.4-1.2-5.1-3.4-5.1s-3.6 1.5-4.5 4.9h-.4l-1.3-4.3a15.6 15.6 0 016.7-1.5c2.7 0 4.7.7 5.9 1.9 1.2 1.2 1.2 3 1.2 5.3v1.3c0 4 .2 6 1.9 6.4v.3zm7.3-.3v.3h-5c-1-.5-1.1-1.9-1.1-4.5v-8.9h-1.6v-.9a11.5 11.5 0 005.2-5h.5a34.1 34.1 0 00-.2 3.7v1h3.3l-.3 1.2h-3v6.5c.2 4.1.4 6.1 2.2 6.6z"/><path fill="#FFF" fill-rule="nonzero" d="M55.4 240.6v.3H50v-.3c1.7-.7 2.2-2.7 2.2-6.3v-4.4c0-1.9-.1-2.8-1.5-3.3v-.3h5.1c1.4 2.9 3 5.9 4.7 8.9l3.5-9h5.1v.3c-.9.2-1.3.7-1.3 1.8v7.4c0 3.2.1 4.5 1.6 4.8v.3h-6.9v-.3c1.5-.3 1.5-1.7 1.5-4.8v-7.3l-5 12.8h-.1c-1.9-4.2-3.8-8.4-5.8-12.6v5.6c0 3.8.3 5.7 2.3 6.4zm17.9-7.2v2.5c0 2.1 0 3.1 1.1 3.4v.2h-4.8v-.2c1.1-.4 1.1-1.3 1.1-3.3v-3.2c0-1.3-.1-1.8-1-1.8v-.2a25.6 25.6 0 003.6-.7v3.3zm2.7 2.4h.2c.4 2.2 1.4 3.3 3 3.3 1.2 0 2.1-.7 2.1-1.7s-.8-1.3-2.3-1.7c-1.5-.4-3.4-1.1-3.4-2.8 0-1.7 1.6-3 4.4-3a8.6 8.6 0 013.6.8l-.8 2.4h-.2c-.5-1.8-1.6-2.7-2.8-2.7A1.7 1.7 0 0078 232c0 1.2 1 1.2 2.7 1.6 1.7.4 3.3 1.1 3.3 2.8 0 1.7-1.8 3.3-4.9 3.3a9.2 9.2 0 01-4.1-1l1-2.9zm9.6 0h.2c.4 2.2 1.4 3.3 3 3.3 1.2 0 2.1-.7 2.1-1.7s-.8-1.3-2.3-1.7c-1.5-.4-3.4-1.1-3.4-2.8 0-1.7 1.6-3 4.4-3a8.6 8.6 0 013.6.8l-.8 2.4h-.2c-.5-1.8-1.6-2.7-2.8-2.7a1.7 1.7 0 00-1.8 1.6c0 1.2 1 1.2 2.7 1.6 1.7.4 3.3 1.1 3.3 2.8 0 1.7-1.8 3.3-4.9 3.3a9.2 9.2 0 01-4.1-1l1-2.9zm16.4-1c0-2.9-.9-4.4-2.5-4.4s-2.4 1.5-2.4 4.3.8 4.4 2.4 4.4c1.6 0 2.5-1.5 2.5-4.3zm-2.5-4.9c3.2 0 5.4 2 5.4 4.9 0 2.9-2.1 4.8-5.4 4.8-3.3 0-5.3-2-5.3-4.8s2.1-4.9 5.3-4.9zm5.6 1.1v-.2a17.7 17.7 0 003.5-.7v5c0 2.4.5 3.5 1.9 3.5s2.2-1.3 2.2-3.5v-2.3c0-1.3-.1-1.7-1-1.8v-.2a25.6 25.6 0 003.6-.7v5.1c0 2.5.1 3.7 1.2 4v.3h-3.3a9.4 9.4 0 01-.4-1.6 3.1 3.1 0 01-3.2 1.9c-2.4 0-3.5-1.5-3.5-4.4v-2.5c0-1.4-.1-1.8-1-1.9zm11.8 8.3c1.1-.4 1.1-1.3 1.1-3.3v-3.2c0-1.3-.1-1.8-1-1.8v-.2a17.5 17.5 0 003.6-.7v2.2c.733-1.6 1.733-2.4 3-2.4h.4l-1 2.9h-.2a.9.9 0 00-.7-.3c-1 0-1.5.8-1.5 2.5v.9c0 2.1 0 3.1 1.1 3.4v.2h-4.8v-.2zm10.8-5.9v2.5c0 2.1.1 3.1 1.1 3.4v.2H124v-.2c1.1-.4 1.1-1.3 1.1-3.3v-3.2c0-1.3 0-1.8-1-1.8v-.2l3.7-.7c-.1 1.1-.1 2.2-.1 3.3zm4.7 2.3h.3c.6 3.1 2.4 4.8 5.2 4.8 2.8 0 3.7-1.1 3.7-2.9 0-1.8-1.4-2.1-3.9-2.5-2.5-.4-3.4-.7-4.4-1.6a3.8 3.8 0 01-1.3-2.9c0-2.6 2.6-4.6 6.7-4.6a12.9 12.9 0 015.7 1.2l-1 3.5h-.3c-.6-2.6-2-3.9-4.3-3.9s-3.3 1.1-3.3 2.5a1.9 1.9 0 00.8 1.5c.7.7 2.2.8 4.2 1.2 2 .4 4.6 1.9 4.6 4.2 0 2.3-2.7 5.1-7.1 5.1a15.5 15.5 0 01-6.8-1.4l1.2-4.2zm17.7 3.6v.2H147c-.6-.3-.7-1.2-.7-2.8V231h-1v-.5a7.1 7.1 0 003.3-3.1h.2v2.9h2l-.2.7h-1.8v4.1c.1 2.6.2 3.8 1.3 4.2zm6.6-5.1c-1.9 0-3 .9-3 2.6 0 1.7.6 2.1 1.5 2.1s1.9-1.4 1.9-4.1v-.6h-.4zm4.2 5.3h-3l-.6-1.4a3.1 3.1 0 01-2.9 1.7c-2.3 0-3.7-1.3-3.7-2.9 0-1.6 2.1-3 6.4-3.1 0-2.1-.7-3.2-2.1-3.2-1.4 0-2.3 1-2.8 3.1h-.2l-.9-2.7a10.6 10.6 0 014.2-.9 4.8 4.8 0 013.7 1.2c.7.8.7 1.8.7 3.3v.8c0 2.5.2 3.7 1.2 4v.1zm4.6-.2v.2h-3.1c-.6-.3-.7-1.2-.7-2.8V231h-1v-.5a7.1 7.1 0 003.3-3.1h.2v2.9h2l-.2.7h-1.8v4.1c.1 2.6.2 3.8 1.3 4.2zm25.4-7.8c0-1.6-.3-4-2.4-4.5v-.4h5.5v.4c-1.7.5-2.3 2.9-2.3 4.5v3.8c0 4.2-2.2 6.1-6.5 6.1s-6.6-1.1-6.6-4.4v-7.5c0-1.9-.3-2.4-1.1-2.5v-.4h6.7v.4c-1 .1-1.7.8-1.7 2.5v6.5c0 2.5 1 4.3 3.6 4.3s4.8-1.8 4.8-5.2v-3.6zm-80.5 15.2c0-1.2-.2-1.8-.9-2v-.2h10l.9 3h-.4a6.6 6.6 0 00-4.8-2.4h-1.7v4.4h1c1.5 0 3.1-.3 3.6-1.9h.4v4.4h-.3c-.3-1.3-1.9-1.9-3.7-1.9h-1v2.3c0 1.6 0 3 1.3 3.1v.3H109v-.3c1.3-.1 1.4-1.5 1.4-3.1v-5.7zm20.9 4.5c0 2.9-2.5 4.8-5.3 4.8s-5.3-1.9-5.3-4.8 2.5-4.8 5.3-4.8 5.3 1.8 5.3 4.8zm-7.7 0c0 1.5.4 4.2 2.4 4.2s2.4-2.7 2.4-4.2-.4-4.3-2.4-4.3-2.4 2.8-2.4 4.3zm15.6 2.8a3 3 0 01-3 2c-2.2 0-3.3-1.5-3.3-3.6s0-2.7-.1-4.1c-.1-1.4-.3-.8-.8-.9v-.3a23.9 23.9 0 003.6-.5 35.9 35.9 0 00-.2 4v1.7c0 1.1.3 2.6 1.7 2.6s2.1-1.8 2.1-3.5v-2.9c0-.7-.3-1-1-1.1v-.3a22.3 22.3 0 003.6-.5c0 2.2-.1 4.3-.1 6.5s.3 2.1 1.1 2.4v.2h-3.1l-.5-1.7zm7.6-5.6a3.1 3.1 0 013.1-2 3 3 0 013.2 3.1v4.6a1.2 1.2 0 001.2 1.4v.3h-4.8v-.3c.6 0 1-.5 1-1.4V250c0-1.2-.3-2.7-1.7-2.7s-1.9 2.3-1.9 3.4v2.1c0 1.5.3 2.5 1.2 2.7v.3h-4.9v-.3c.9-.2 1.2-1.2 1.2-2.7v-3.7c0-1.2-.6-1.6-1.1-1.7v-.3a22.7 22.7 0 003.5-.5v1.8zm17.9 4.7c0 .9.3 2.2 1.1 2.4v.2h-3.1l-.4-1.5a3 3 0 01-3.1 1.8 4.7 4.7 0 01-4.5-4.8 4.7 4.7 0 014.5-4.8 3.3 3.3 0 012.9 1.2h.1v-2.3c0-.9-.3-1.4-1-1.4v-.3l3.5-.6v10.1zm-4.8 2.2c1.7 0 2.3-1.4 2.3-4.1 0-2.7-.6-4.2-2.2-4.2s-2.4 1.5-2.4 4.2.7 4.1 2.3 4.1zm12.8-1a3 3 0 01-2.7 1.7c-1.8 0-3.7-.7-3.7-2.7s3.4-3.2 5.9-3.2h.4v-.8a2.1 2.1 0 00-2.1-2.4c-1.4 0-2.4 1.2-2.9 3h-.2l-.7-2.8a13.8 13.8 0 014.5-.8c2.4 0 3.9.9 3.9 3.9v3.5a1.6 1.6 0 001 1.7v.2h-3l-.4-1.3zm-.1-3.6h-.3c-1.7 0-3.2.8-3.2 2.7a1.8 1.8 0 001.6 1.9c1.5 0 1.9-2 1.9-3.1v-1.5zm6.1 5c-.8 0-1-.6-1-1.4 0-.8.1-1.9.1-2.5v-4h-1.3l.2-.9a5.3 5.3 0 003.4-2.5h.2v2.5h2.2l-.4.9h-1.8v5.4c0 1.2.2 2.2 1.3 2.3v.2h-2.9zm20.2-4.5c0 2.9-2.5 4.8-5.3 4.8a4.9 4.9 0 01-5.2-4.8c0-3 2.4-4.8 5.2-4.8 2.8 0 5.3 1.8 5.3 4.8zm-7.7 0c0 1.5.4 4.2 2.4 4.2s2.5-2.7 2.5-4.2-.4-4.3-2.5-4.3-2.4 2.8-2.4 4.3zm11.9-2.8a3 3 0 013.1-2 3 3 0 013.2 3.1v4.6c0 .8.3 1.3 1.1 1.4v.3h-4.8v-.3c.7 0 1.1-.5 1.1-1.4V250c0-1.2-.3-2.7-1.7-2.7s-1.9 2.3-1.9 3.4v2.1c0 1.5.3 2.5 1.2 2.7v.3h-4.9v-.3c.9-.2 1.1-1.2 1.1-2.7v-3.7c0-1.2-.5-1.6-1-1.7v-.3a22.7 22.7 0 003.5-.5v1.8zm-16 1.4v2.4c0 2.1 0 3.1 1.1 3.4v.3h-4.9v-.3c1.1-.3 1.2-1.3 1.2-3.2v-3.2c0-1.3-.1-1.8-1-1.9v-.2a26.9 26.9 0 003.6-.6v3.3zm.1-5a1.5 1.5 0 01-3 0c0-.6.7-1.1 1.5-1.1s1.5.5 1.5 1.1zm-16.5-14.4c-1 0-1.7.9-1.9 2.6h3.6c-.1-1.6-.8-2.6-1.7-2.6zm-2 3.3v.8c0 2.8 1.2 4.3 3.1 4.3 1.9 0 2.7-1.1 3.3-3.3l.5.5c-.8 2.4-2.3 3.7-4.8 3.7a4.9 4.9 0 01-5.1-5 4.7 4.7 0 015-4.8c2.7 0 4.4 1.3 4.7 3.8h-6.7zm-40.9-5.2c0 .6-.6 1.1-1.5 1.1a1.2 1.2 0 110-2.3c.9 0 1.5.5 1.5 1.2zm80.5 4.9v2.5c0 2.1.1 3.1 1.2 3.4v.2h-4.9v-.2c1.1-.4 1.2-1.3 1.2-3.3v-3.2c0-1.3-.1-1.8-1-1.8v-.2a28.8 28.8 0 003.6-.7c-.1 1.1-.1 2.2-.1 3.3zm.2-4.9c0 .6-.7 1.1-1.5 1.1s-1.5-.5-1.5-1.1a1.5 1.5 0 013 0zm42.8 4.9v2.5c0 2.1.1 3.1 1.2 3.4v.2h-4.9v-.2c1.1-.4 1.2-1.3 1.2-3.3v-3.2c0-1.3-.1-1.8-1-1.8v-.2a25.6 25.6 0 003.6-.7c-.1 1.1-.1 2.2-.1 3.3zm.2-4.9c0 .6-.7 1.1-1.5 1.1s-1.5-.5-1.5-1.1a1.5 1.5 0 013 0zm-178.3 0a1.3 1.3 0 01-1.4 1.1c-.9 0-1.5-.5-1.5-1.1 0-.6.6-1.2 1.5-1.2a1.3 1.3 0 011.4 1.2zm193.7 9.5h1.2v.2h-.5v1.2h-.2v-1.2h-.5v-.2zm1.4 0h.3l.4 1.1.4-1.1h.3v1.4h-.2v-1l-.4 1h-.2l-.4-1v1h-.2V238zm-71.8-6.1h.1a3.2 3.2 0 013.1-2 3 3 0 013.2 3.2v4.7a1.3 1.3 0 001.2 1.4v.3h-4.9v-.3c.7 0 1.1-.5 1.1-1.4v-4.2c0-1.2-.3-2.7-1.7-2.7s-1.9 2.3-1.9 3.4v2.2c0 1.4.2 2.5 1.2 2.7v.3h-5v-.3c.9-.2 1.2-1.3 1.2-2.7v-3.8c0-1.3-.6-1.6-1.1-1.8v-.2l3.5-.5v1.7zm18.8 7.2c-.1.3-.2.6-.3.6h-.1l-.3-.6-3.3-6.3a5.5 5.5 0 00-.9-1.4c-.1-.3-.3-.3-.8-.6v-.3h5.1v.2c-.5.1-1.1.4-1.1.9a1.4 1.4 0 00.2.6l2.2 4 1.3-2.3a4.2 4.2 0 00.6-2.1c0-.6-.4-.9-1.1-1.1v-.2h3.5v.2a6.7 6.7 0 00-2.2 2.8l-2.8 5.6zm7.5-5.3v1c0 1.9.6 4.1 3 4.1s3.1-1.7 3.5-3.4l.4.4a4.6 4.6 0 01-5 3.8 4.7 4.7 0 01-4.8-4.9 4.6 4.6 0 014.8-4.9c2.5 0 4.6 1.4 4.7 3.9h-6.6zm3.7-.6c-.1-1.1-.2-2.7-1.9-2.7s-1.7 1.6-1.8 2.7h3.7zm9.9-.2c-.3-.3-.5-.6-1-.6s-1.4 1.4-1.4 2.7v1.4c0 1.4.3 2.5 1.2 2.7v.3h-5v-.3c1-.2 1.2-1.3 1.2-2.7v-3.8c0-1.3-.5-1.6-1.1-1.8v-.2l3.6-.5v2.6c.4-1.3 1.4-2.9 2.8-2.9h.8l-1.1 3.1zm8.8.2a2.7 2.7 0 00-2.8-2.7 1.6 1.6 0 00-1.7 1.6c0 1 .9 1.3 3 1.7 2.1.4 3 .6 3 2.7s-2.8 3.2-4.8 3.2a9.8 9.8 0 01-4.4-1l.9-2.9h.1c.5 1.8 1.6 3.3 3.6 3.3s2.1-.7 2.1-1.7-1.6-1.4-3.1-1.7c-1.5-.3-3-.7-3-2.8 0-2.1 2.5-3 4.4-3a12.3 12.3 0 013.8.8l-.8 2.6-.3-.1zm10 6.2c-.8 0-1-.6-1-1.4 0-.8.1-1.9.1-2.6v-4H253l.2-.9a5.3 5.3 0 003.5-2.5h.2v2.5h2.2l-.4.9h-1.8v5.4c0 1.2.1 2.3 1.3 2.4v.2h-3zm4.3-8.9h5.3v.2c-.5.1-1.1.4-1.1 1a2.3 2.3 0 00.3.9l2.1 3.8 1.6-3.5a1.8 1.8 0 00.2-.9 1.4 1.4 0 00-1.1-1.3v-.2h3.8v.2a5.3 5.3 0 00-2.1 2.4l-3.2 6.1c-1.5 2.9-2.1 3.5-4.9 3.6l1.1-3 .3.2c0 .6.6.9 1.2.9a1.3 1.3 0 001.2-1.4 5.2 5.2 0 00-.6-2.2l-2.3-4.6a4 4 0 00-1.8-2v-.2zm-16.4-47.3c-1.6 0-2.7 1.4-3.1 4.1h5.8c-.1-2.6-1.2-4.1-2.7-4.1zm-3.1 5.2a5.7 5.7 0 00-.1 1.3c0 4.4 1.9 6.9 4.9 6.9 3 0 4.4-1.8 5.3-5.3l.8.7c-1.2 4-3.7 5.9-7.6 5.9-3.9 0-8.1-3.2-8.1-7.8s3.3-7.8 8-7.8 6.9 2.2 7.5 6.1H240zm-65.5-8.4a2.2 2.2 0 01-2.4 1.9 2.1 2.1 0 01-2.3-1.9 2.1 2.1 0 012.3-1.8c1.4 0 2.4.8 2.4 1.8zm128.8 7.9v4c0 3.3.1 4.9 1.9 5.4v.4l-4-.2-3.8.2v-.4c1.7-.6 1.8-2.1 1.8-5.2V187c0-2.1-.1-2.8-1.6-3v-.3a57.3 57.3 0 005.8-1c-.1 1.7-.1 3.4-.1 5.2zm.2-7.9a2.1 2.1 0 01-2.3 1.9 2.2 2.2 0 01-2.4-1.9c0-1 1.1-1.8 2.4-1.8a2.1 2.1 0 012.3 1.8zm68.7 7.9v4c0 3.3 0 4.9 1.8 5.4v.4l-4-.2-3.8.2v-.4c1.8-.6 1.8-2.1 1.8-5.2V187c0-2.1-.1-2.8-1.6-3v-.3a57.3 57.3 0 005.8-1v5.2zm.2-7.9a2.5 2.5 0 01-4.8 0c0-1 1.1-1.8 2.4-1.8 1.3 0 2.4.8 2.4 1.8zm-285.2 0a2.5 2.5 0 01-4.8 0c0-1 1.1-1.8 2.4-1.8 1.3 0 2.4.8 2.4 1.8zm309.9 15.3h1.8v.4h-.7v1.9h-.4v-1.9h-.7v-.4zm2.2 0h.5l.6 1.8.6-1.8h.6v2.3h-.4v-1.7l-.6 1.7h-.3l-.6-1.7h-.1v1.7h-.3v-2.3zm-114.8-9.7a5.1 5.1 0 015.1-3.2 4.8 4.8 0 015.1 5v7.5c0 1.4.5 2.1 1.8 2.3v.5h-7.7v-.5c1-.1 1.7-.9 1.7-2.3v-6.7c0-1.8-.4-4.3-2.7-4.3-2.3 0-3.1 3.7-3.1 5.5v3.4c0 2.4.4 4 1.9 4.4v.5h-8v-.5c1.5-.4 1.9-2 1.9-4.4v-6c0-2-1-2.6-1.8-2.8v-.4c1.9-.2 3.7-.4 5.7-.8l.1 2.8zm30 11.5c-.1.3-.4.9-.6.9-.1 0-.3-.2-.6-.9l-5.2-10.2a14.4 14.4 0 00-1.4-2.2c-.3-.4-.6-.5-1.3-.9v-.6h8.1v.5c-.7.1-1.7.5-1.7 1.3a3.8 3.8 0 00.3 1l3.6 6.5 2-3.8a7.8 7.8 0 00.9-3.4c.1-.9-.6-1.4-1.7-1.6v-.5h5.6v.5a9 9 0 00-3.5 4.4l-4.5 9zm12-8.6v1.7c0 3.1.9 6.6 4.8 6.6s4.9-2.8 5.5-5.5l.8.6c-1 4-3.8 6.1-8 6.1a7.6 7.6 0 01-7.8-7.8 7.5 7.5 0 017.8-7.8c3.9 0 7.2 2.2 7.4 6.1h-10.5zm5.9-.9c-.1-1.8-.4-4.3-3-4.3s-2.8 2.5-2.9 4.3h5.9zm15.9-.3c-.5-.5-.9-1-1.7-1-.8 0-2.2 2.2-2.2 4.3v2.2c0 2.4.4 4 1.9 4.4v.5h-8v-.5c1.6-.4 2-2 2-4.4v-6c0-2-.9-2.6-1.8-2.8v-.4c1.9-.2 3.8-.4 5.8-.8 0 .7-.1 1.5-.1 2.4v1.7h.1c.6-2 2.1-4.5 4.4-4.5h1.3l-1.7 4.9zm14.1.3a4.4 4.4 0 00-4.5-4.3 2.5 2.5 0 00-2.8 2.6c0 1.6 1.5 2.1 4.8 2.6s4.9 1.1 4.9 4.3c0 3.2-4.6 5.2-7.8 5.2a18.7 18.7 0 01-7-1.5l1.5-4.7c.9 2.8 2.6 5.3 5.9 5.3 1.5 0 3.2-1.2 3.2-2.8 0-1.6-2.4-2.2-4.8-2.7s-4.9-1.2-4.8-4.4c.1-3.2 3.9-4.8 7-4.8a21.2 21.2 0 016.1 1.1l-1.3 4.3-.4-.2zm15.9 10c-1.3 0-1.5-1-1.5-2.3 0-1.3.1-3.1.1-4.2v-6.4h-2.1l.3-1.5c2.4-.3 4.3-2.1 5.6-4h.3v4h3.5l-.6 1.5H381v8.7c0 1.9.3 3.6 2.1 3.7v.5h-4.8zm6.8-14.4h8.6v.5c-.8.1-1.7.5-1.7 1.5.027.505.2.992.5 1.4l3.3 6.1 2.5-5.6a3.7 3.7 0 00.4-1.5 2 2 0 00-1.7-1.9v-.5h5.9v.5c-1.6.6-2.6 2.4-3.3 3.8l-5.1 9.7c-2.4 4.7-3.4 5.5-7.9 5.8l1.8-4.8.4.2c0 1 1.1 1.5 1.9 1.5a2.1 2.1 0 002.1-2.2 9.9 9.9 0 00-1.1-3.5l-3.7-7.4c-.7-1.6-1.8-2.9-2.9-3.1v-.5zm-109.6 1.6c0-2.5-.6-6.4-3.9-7.1v-.6h8.8v.6c-2.7.7-3.6 4.6-3.6 7.1v6.2c-.1 6.7-3.5 9.6-10.4 9.6-5 0-10.7-1.7-10.7-6.9v-12.1c0-2.9-.3-3.7-1.8-3.9v-.6h10.8v.6c-1.6.2-2.7 1.3-2.7 3.9v10.5c-.1 4 1.6 6.9 5.7 6.9 5.9 0 7.7-2.9 7.7-8.3l.1-5.9zm-128.9 24.4c0-1.8-.3-2.9-1.4-3.1v-.5h16.1l1.3 4.9h-.6a10.6 10.6 0 00-7.8-3.9h-2.7v7.1h1.7c2.4 0 5-.5 5.8-3h.5v6.9h-.4c-.5-2-3-2.9-5.9-2.9h-1.7v3.6c0 2.6.1 4.8 2.2 4.9v.6h-9.3v-.6c2.1-.1 2.2-2.3 2.2-4.9v-9.1zm33.5 7.2c0 4.7-4 7.7-8.4 7.7s-8.5-3-8.5-7.7 4-7.7 8.5-7.7 8.4 2.9 8.4 7.7zm-12.3 0c0 2.4.6 6.8 3.9 6.8s3.8-4.4 3.8-6.8c0-2.4-.6-6.8-3.8-6.8-3.2 0-3.9 4.4-3.9 6.8zm25 4.5a5.2 5.2 0 01-5 3.2c-3.5 0-5.2-2.4-5.2-5.8v-6.5c0-1-.6-1.3-1.5-1.4v-.5a57.7 57.7 0 005.8-.8c-.1 1.3-.2 3.6-.2 6.3v2.7c0 1.9.5 4.2 2.7 4.2s3.3-2.8 3.3-5.6v-4.6c0-1.1-.5-1.6-1.6-1.8v-.4a57.7 57.7 0 005.8-.8c-.1 3.4-.1 6.9-.1 10.3 0 3.4.4 3.4 1.6 3.8v.5h-4.9l-.7-2.8zm12.1-9a5 5 0 015-3.2 4.8 4.8 0 015 4.9v7.5a2.1 2.1 0 001.9 2.3v.4h-7.7v-.4a2.1 2.1 0 001.8-2.3v-6.7c0-1.8-.5-4.2-2.8-4.2s-3 3.7-3 5.4v3.4c0 2.3.4 3.9 1.9 4.4v.4h-7.9v-.4c1.5-.5 1.9-2.1 1.9-4.4v-6c0-1.9-.9-2.5-1.7-2.7v-.4c1.8-.2 3.6-.4 5.6-.8v2.8zm28.7 7.5c0 1.5.5 3.5 1.7 3.8v.5h-5l-.6-2.5c-1.1 2.1-2.5 2.9-5 2.9-4.1 0-7.1-3.8-7.1-7.7 0-3.9 3-7.7 7.1-7.7a5.6 5.6 0 014.7 1.9h.1v-3.7c0-1.4-.5-2.1-1.5-2.2v-.4l5.6-1v16.1zm-7.7 3.6c2.6 0 3.6-2.3 3.6-6.6s-1-6.7-3.6-6.7-3.7 2.4-3.7 6.7c0 4.3 1.1 6.6 3.7 6.6zm20.5-1.7c-1.1 1.7-2.4 2.8-4.5 2.8s-5.9-1.1-5.9-4.4c0-3.3 5.5-5.1 9.5-5.1h.6v-1.2c0-2.3-1.2-3.8-3.3-3.8-2.1 0-3.8 1.9-4.6 4.8h-.4l-1.2-4.5a23.4 23.4 0 017.3-1.3c3.8 0 6.3 1.5 6.3 6.3v5.6c0 1.3.4 2.3 1.5 2.6v.5H247l-.6-2.3zm-.3-5.8h-.5c-2.7 0-5 1.3-5 4.4 0 1.5.9 3 2.5 3s3-3.1 3-4.9v-2.5zm9.8 8.2c-1.3 0-1.5-1-1.5-2.3V211h-2l.3-1.5c2.3-.2 4.2-2 5.5-3.9h.3v3.9h3.4l-.5 1.5h-2.9v8.6c0 1.9.3 3.6 2.1 3.6v.5h-4.7zm32.4-7.3c0 4.7-4 7.7-8.5 7.7s-8.4-3-8.4-7.7 3.9-7.7 8.4-7.7 8.5 2.9 8.5 7.7zm-12.3 0c0 2.4.6 6.8 3.8 6.8 3.2 0 3.9-4.4 3.9-6.8 0-2.4-.6-6.8-3.9-6.8s-3.8 4.4-3.8 6.8zm18.9-4.5h.1a4.9 4.9 0 014.9-3.2 4.8 4.8 0 015.1 4.9v7.5a2.1 2.1 0 001.8 2.3v.4h-7.6v-.4a2.1 2.1 0 001.7-2.3v-6.7c0-1.8-.5-4.2-2.7-4.2s-3.1 3.7-3.1 5.4v3.4c0 2.3.4 3.9 1.9 4.4v.4h-7.9v-.4c1.5-.5 1.9-2.1 1.9-4.4v-6c0-1.9-.9-2.5-1.7-2.7v-.4c1.8-.2 3.7-.4 5.6-.8v2.8zm-25.6 2.2v4c0 3.3.1 4.9 1.8 5.4v.3h-7.7v-.3c1.7-.6 1.8-2.1 1.8-5.2v-5.2c0-2-.1-2.8-1.6-2.9v-.3c2.2-.3 4.1-.6 5.8-1-.1 1.7-.1 3.4-.1 5.2zm.2-7.9a2.5 2.5 0 11-2.4-1.9 2.2 2.2 0 012.4 1.9zm-210.8-6.7v.4H50v-.4c2.8-1.2 3.6-4.3 3.6-10.2v-7c0-3-.2-4.5-2.5-5.2v-.5h8.2c2.3 4.6 4.8 9.4 7.5 14.2l5.6-14.3h8.2v.5c-1.5.2-2.2 1.1-2.2 2.8v11.9c0 5 .3 7.2 2.6 7.7v.4H69.9v-.4c2.5-.5 2.5-2.8 2.5-7.7v-11.6l-7.9 20.4h-.3c-3-6.6-6.1-13.3-9.3-20.1v8.9c0 6 .6 9 3.8 10.2zm28.6-11.6v4c0 3.3 0 4.9 1.8 5.4v.4l-3.9-.2-3.9.2v-.4c1.8-.6 1.9-2.1 1.9-5.2V187c0-2.1-.2-2.8-1.6-3v-.3a54.9 54.9 0 005.7-1v5.2zm4.2 3.8h.4c.6 3.5 2.3 5.3 4.8 5.3s3.4-1.2 3.4-2.8c0-1.6-1.2-2.1-3.8-2.7-2.6-.6-5.3-1.8-5.3-4.5s2.6-4.8 7-4.8a14.1 14.1 0 015.8 1.3l-1.3 3.9h-.4c-.8-2.8-2.4-4.2-4.4-4.2a2.6 2.6 0 00-2.8 2.4c0 2 1.5 2.1 4.2 2.7 2.7.6 5.3 1.8 5.3 4.5s-2.8 5.2-7.8 5.2a15 15 0 01-6.7-1.6l1.6-4.7zm15.4 0h.4c.6 3.5 2.3 5.3 4.8 5.3s3.4-1.2 3.4-2.8c0-1.6-1.3-2.1-3.8-2.7-2.5-.6-5.4-1.8-5.4-4.5s2.7-4.8 7.1-4.8a13.6 13.6 0 015.7 1.3l-1.3 3.9h-.3c-.8-2.8-2.5-4.2-4.5-4.2a2.6 2.6 0 00-2.8 2.4c0 2 1.5 2.1 4.3 2.7 2.8.6 5.3 1.8 5.3 4.5s-2.9 5.2-7.8 5.2a14.7 14.7 0 01-6.7-1.6l1.6-4.7zm26.3-1.6c0-4.6-1.4-6.9-4-6.9s-3.9 2.3-3.9 6.9c0 4.6 1.4 7 3.9 7s4-2.4 4-7zm-3.9-7.8c5.1 0 8.5 3.2 8.5 7.8s-3.4 7.8-8.6 7.8c-5.2 0-8.5-3.3-8.5-7.7s3.4-7.9 8.6-7.9zm8.8 1.8v-.4a35.7 35.7 0 005.7-1v8c0 3.8.8 5.6 3 5.6s3.5-2.1 3.5-5.6V187c0-2.1-.1-2.8-1.6-2.9v-.4a57.3 57.3 0 005.8-1v8.1c0 4 .2 6 1.9 6.3v.5h-5.3c-.2-.9-.5-1.8-.6-2.6a5.2 5.2 0 01-5.1 3c-3.8 0-5.7-2.3-5.7-7v-4c0-2.1-.1-2.8-1.6-2.9zm18.9 13.2c1.7-.6 1.8-2.1 1.8-5.2V187c0-2.1-.1-2.8-1.6-3v-.3a52.6 52.6 0 005.7-1v3.5c1.2-2.6 2.8-3.9 4.9-3.9h.6l-1.6 4.7h-.4a1.3 1.3 0 00-1.1-.6c-1.5 0-2.4 1.4-2.4 4.1v1.4c0 3.3.1 4.9 1.9 5.4v.4l-4-.2-3.8.2v-.4zm17.3-9.4v4c0 3.3.1 4.9 1.8 5.4v.4l-3.9-.2-3.8.2v-.4c1.7-.6 1.8-2.1 1.8-5.2V187c0-2.1-.1-2.8-1.6-3v-.3c2.2-.3 4.1-.6 5.8-1-.1 1.7-.1 3.4-.1 5.2zm7.6 3.7h.4c.9 5 3.9 7.7 8.3 7.7s5.9-1.8 5.9-4.7c0-2.9-2.2-3.2-6.2-4-4-.8-5.4-1.1-7-2.5a6.1 6.1 0 01-2-4.6c0-4.3 4-7.4 10.7-7.4a22.4 22.4 0 019.1 1.9l-1.6 5.6h-.5c-1-4.1-3.3-6.2-6.9-6.2-3.6 0-5.3 1.8-5.3 4a2.9 2.9 0 001.2 2.4c1.3 1 3.6 1.2 6.9 1.8 4.9 1 7.2 3.1 7.2 6.8 0 3.7-4.3 8.2-11.2 8.2a24.8 24.8 0 01-10.9-2.3l1.9-6.7zm28.2 5.7v.3h-4.9c-1-.5-1.1-1.9-1.1-4.5v-8.9h-1.6l.2-.9a12 12 0 005.2-5h.4c-.1.9-.1 2.1-.1 3.7v1h3.3l-.4 1.2h-2.9v6.4c0 4.2.1 6.2 1.9 6.7zm10.6-8.1c-3.1 0-4.7 1.5-4.7 4.2s.9 3.3 2.3 3.3 3.1-2.2 3.1-6.5v-.9l-.7-.1zm6.8 8.4h-4.8a8.7 8.7 0 01-1-2.4 4.9 4.9 0 01-4.7 2.7c-3.6 0-5.9-1.9-5.9-4.5s3.4-4.8 10.3-5c0-3.4-1.2-5.1-3.4-5.1s-3.6 1.5-4.5 4.8h-.4l-1.3-4.2a15.6 15.6 0 016.7-1.5c2.7 0 4.7.7 5.9 1.9 1.2 1.2 1.2 3 1.2 5.3v1.3c0 4 .2 6 1.9 6.3v.4zm7.3-.3v.3h-5c-1-.5-1.1-1.9-1.1-4.5v-8.9h-1.6v-.9a11.5 11.5 0 005.2-5h.5a32.6 32.6 0 00-.2 3.7v1h3.3l-.3 1.2h-3v6.4c.2 4.2.4 6.2 2.2 6.7z"/><path fill="#FFF" d="M351.613 27.736v-12.35h5.607l.656-2.285h-6.263v-1.906c0-2.883.11-5.222.273-6.912h-.873c-2.23 4.192-5.389 7.185-9.853 9.525l-.27 1.578h3.046l-.107 13.163v3.92c0 4.84.22 7.614 2.067 8.486 6.372.052 9.415.104 9.415.104v-.648c-3.371-.981-3.698-4.787-3.698-12.675zm-25.365-9.582c-6.196-1.224-10.686-1.495-13.067-3.402-1.499-1.224-2.314-2.786-2.314-4.625 0-4.28 3.944-7.68 10.139-7.68 6.868 0 11.224 4.011 13.132 11.968h.886L338.152 3.6c-5.104-2.31-11.16-3.6-17.417-3.6-12.728 0-20.416 5.984-20.416 14.14 0 3.4 1.426 6.53 3.874 8.707 2.996 2.653 7.489 3.605 13.275 4.756 7.618 1.496 11.972 2.585 11.972 7.687 0 5.574-4.149 9.04-11.29 9.04-8.511 0-14.089-5.165-15.792-14.684h-.813l-3.743 12.647c5.506 2.789 12.654 4.423 20.821 4.423 13.267 0 21.5-6.87 21.5-15.712 0-7.005-4.557-11.014-13.875-12.85zm-39.191 11.92v-7.506c0-3.43 0-6.744.162-9.955-3.157.761-6.86 1.36-11.057 1.902v.654c2.838.217 3.056 1.684 3.056 5.548v9.795c0 5.925-.168 8.863-3.484 9.952v.654c2.773-.163 5.173-.22 7.292-.22 2.453 0 4.953.057 7.515.22v-.654c-3.322-.924-3.484-3.972-3.484-10.39zm111.542-2.338v-12.35h5.61l.654-2.285h-6.264v-1.906c0-2.883.113-5.222.272-6.912h-.866c-2.234 4.192-5.39 7.185-9.853 9.525l-.274 1.578h3.05l-.107 13.163v3.92c0 4.84.214 7.614 2.065 8.486 6.368.052 9.418.104 9.418.104v-.648c-3.377-.981-3.705-4.787-3.705-12.675zm19.577-14.2c2.949 0 5.066 2.825 5.23 7.887h-11.103c.708-5.169 2.939-7.887 5.873-7.887zm13.451 15.505c-1.745 6.583-5.227 10.006-10.125 10.006-5.716 0-9.365-4.676-9.365-13.054 0-.812.052-1.686.111-2.614h20.414c-1.035-7.392-6.207-11.53-14.267-11.53-9.031 0-15.292 6.147-15.292 14.798 0 8.813 6.26 15.012 15.567 15.012 7.406 0 12.198-3.75 14.427-11.315l-1.47-1.303zm1.495 14.865c-1.218 0-2.108-.953-2.108-2.154 0-1.185.89-2.156 2.075-2.156h.016c1.202 0 2.074.97 2.074 2.156 0 1.201-.872 2.17-2.057 2.154zm0-4.852h-.017c-1.546 0-2.781 1.2-2.781 2.698 0 1.529 1.235 2.712 2.781 2.712 1.563 0 2.764-1.183 2.764-2.712 0-1.498-1.2-2.698-2.747-2.698zm-167.79-19.858v-6.64c-2.452.71-6.1 1.364-10.893 1.96v.653c2.83.217 3.048 1.684 3.048 5.548v9.795c0 5.98-.16 8.863-3.479 9.952v.654c2.77-.163 5.165-.22 7.293-.22 2.45 0 4.952.057 7.51.22v-.654c-3.318-.924-3.478-3.972-3.478-10.39v-2.611c0-5.116 1.629-7.782 4.516-7.782.924 0 1.629.383 2.172 1.09h.711l2.992-8.866c-.383-.056-.762-.056-1.091-.056-3.966 0-7.073 2.452-9.3 7.347zm111.43 7.611c0 8.271-1.47 12.457-5.774 12.457-2.665 0-4.513-2.389-4.513-6.36 0-5.01 3.154-7.834 9.033-7.834.383 0 .82 0 1.254.052v1.685zm8.058 1.2v-2.503c0-4.405 0-7.508-2.336-10.008-2.13-2.34-5.938-3.647-11.112-3.647-4.516 0-8.767.924-12.79 2.832l2.504 8.107h.76c1.634-6.316 4.085-9.252 8.438-9.252 4.195 0 6.478 3.317 6.478 9.737v.217c-13.064.436-19.542 3.48-19.542 9.522 0 4.897 4.41 8.647 11.215 8.647 4.19 0 6.911-1.524 8.98-5.167a15.62 15.62 0 001.907 4.463h2.396c2.233 0 4.461.052 6.69.104v-.924c-3.207-.705-3.589-4.404-3.589-12.128zm48.17 13.63h-.296v-.774c.065-.015.18-.033.345-.033.396 0 .577.165.577.412 0 .28-.28.395-.626.395zm.741.196V41.8c.328-.099.559-.329.559-.642a.742.742 0 00-.262-.576c-.2-.131-.429-.214-.94-.214-.444 0-.79.05-1.037.1v2.68h.626V42.08h.297c.345 0 .51.132.558.426.084.313.133.544.216.642h.675c-.067-.08-.116-.245-.2-.657-.08-.363-.23-.576-.492-.66zM121.054 30.074v-7.506c0-3.43 0-6.744.164-9.955-3.16.761-6.86 1.36-11.053 1.902v.654c2.83.217 3.05 1.684 3.05 5.548v9.795c0 5.925-.163 8.863-3.484 9.952v.654a123.34 123.34 0 017.295-.22c2.446 0 4.95.057 7.511.22v-.654c-3.32-.924-3.483-3.972-3.483-10.39zm-16.82-.185V7.18c0-3.201 1.224-4.832 4.08-5.308v-.95c-3.13.135-6.26.274-9.389.274-2.039 0-4.081-.07-6.124-.139l-10.681 27.2c-5.311-9.178-10.005-18.224-14.36-27.131-2.176 0-4.355.07-6.533.07-3.06 0-6.123-.07-9.05-.139v.882c4.285 1.365 4.626 4.152 4.626 9.865v13.395c0 11.152-1.496 17.206-6.803 19.446v.818c3.063-.136 5.918-.204 8.506-.204 2.108 0 4.766.068 8.03.204v-.887c-6.058-2.171-7.214-7.955-7.214-19.377V8.197c6.192 12.922 12.111 25.707 17.691 38.356h.546L92.801 7.584v22.305c0 9.383 0 13.739-4.764 14.687v.887c4.149-.204 7.554-.204 10.41-.204 2.858 0 6.464 0 10.686.204v-.887c-4.493-.948-4.898-5.032-4.898-14.687zm144.99-1.882V19.36c0-.6 0-2.887.11-6.746-3.213.761-6.91 1.415-11.043 1.956v.654c2.827.22 3.046 1.63 3.046 5.494v7.128c0 6.744-2.832 10.714-6.802 10.714-4.087 0-5.722-3.427-5.722-10.714V12.613c-2.445.706-6.04 1.36-10.83 1.956v.654c2.832.22 3.052 1.63 3.052 5.494v7.672c0 8.92 3.59 13.326 10.882 13.326 4.686 0 7.898-1.905 9.692-5.712.27 1.632.705 3.261 1.194 4.952h2.826c2.563 0 4.956.052 7.19.104v-.924c-3.213-.705-3.595-4.404-3.595-12.128zm33.681-16.972c2.5 0 4.53-1.587 4.53-3.546 0-1.954-2.03-3.543-4.53-3.543-2.501 0-4.532 1.59-4.532 3.543 0 1.959 2.03 3.546 4.532 3.546zm-166.514 0c2.505 0 4.532-1.587 4.532-3.546 0-1.954-2.027-3.543-4.532-3.543-2.502 0-4.531 1.59-4.531 3.543 0 1.959 2.03 3.546 4.531 3.546zm27.307 12.238c-5.226-1.197-8.164-1.308-8.164-5.06 0-2.555 2.342-4.732 5.389-4.732 3.756 0 6.913 2.827 8.437 8.16l.707.054 2.506-7.394c-3.377-1.581-7.076-2.396-10.997-2.396-8.438 0-13.447 4.028-13.447 9.083 0 5.224 3.32 6.804 10.235 8.543 4.793 1.196 7.188 1.956 7.188 5.111 0 3.102-2.67 5.33-6.424 5.33-4.792 0-8.008-3.426-9.147-10.117l-.763-.107-3.045 8.976c3.699 1.9 8.107 2.99 12.734 2.99 9.473 0 14.915-3.915 14.915-9.952 0-5.115-3.319-6.97-10.124-8.489zm57.362 16.699c-4.786 0-7.4-4.512-7.4-13.325 0-8.651 2.667-13.111 7.4-13.111 4.902 0 7.515 4.46 7.515 13.163 0 8.814-2.613 13.273-7.515 13.273zm.11-28.067c-9.853 0-16.383 6.037-16.383 14.902 0 8.543 6.586 14.798 16.166 14.798 10.02 0 16.444-6.145 16.444-14.851 0-8.758-6.48-14.849-16.227-14.849zm-28.195 11.368c-5.228-1.197-8.164-1.308-8.164-5.06 0-2.555 2.337-4.732 5.388-4.732 3.755 0 6.913 2.827 8.437 8.16l.708.054 2.504-7.394c-3.376-1.581-7.076-2.396-10.998-2.396-8.435 0-13.445 4.028-13.445 9.083 0 5.224 3.322 6.804 10.23 8.543 4.794 1.196 7.19 1.956 7.19 5.111 0 3.102-2.667 5.33-6.422 5.33-4.792 0-8.005-3.426-9.144-10.117l-.767-.107-3.045 8.976c3.7 1.9 8.11 2.99 12.736 2.99 9.472 0 14.916-3.915 14.916-9.952 0-5.115-3.32-6.97-10.124-8.489zm65.631 44.062v-7.719h3.506l.41-1.428h-3.916v-1.191c0-1.802.068-3.264.17-4.32h-.545c-1.395 2.62-3.37 4.49-6.162 5.953l-.17.986h1.906l-.067 8.227v2.45c0 3.026.137 4.759 1.292 5.304 3.985.032 5.888.065 5.888.065v-.405c-2.108-.613-2.312-2.992-2.312-7.922zm-15.862-5.989c-3.874-.765-6.682-.934-8.171-2.126-.937-.765-1.447-1.741-1.447-2.89 0-2.676 2.466-4.8 6.34-4.8 4.295 0 7.019 2.506 8.212 7.48h.554l1.956-6.76c-3.192-1.443-6.979-2.25-10.891-2.25-7.96 0-12.767 3.74-12.767 8.838 0 2.125.892 4.08 2.423 5.441 1.873 1.659 4.683 2.254 8.3 2.973 4.764.935 7.487 1.615 7.487 4.804 0 3.484-2.594 5.65-7.06 5.65-5.322 0-8.81-3.228-9.875-9.177h-.508l-2.34 7.904c3.442 1.743 7.912 2.765 13.02 2.765 8.295 0 13.443-4.295 13.443-9.82 0-4.379-2.849-6.884-8.676-8.032zm-24.507 7.45v-4.69c0-2.145 0-4.216.101-6.223-1.973.476-4.29.85-6.914 1.189v.409c1.775.135 1.911 1.052 1.911 3.467v6.122c0 3.703-.104 5.54-2.179 6.22v.409a77.122 77.122 0 014.56-.138c1.534 0 3.098.036 4.7.138v-.409c-2.078-.578-2.179-2.482-2.179-6.494zm69.75-1.461v-7.719h3.508l.409-1.428h-3.917v-1.191c0-1.802.07-3.264.17-4.32h-.542c-1.397 2.62-3.37 4.49-6.161 5.953l-.17.986h1.906l-.067 8.227v2.45c0 3.026.134 4.759 1.292 5.304 3.981.032 5.89.065 5.89.065v-.405c-2.113-.613-2.318-2.992-2.318-7.922zm12.242-8.875c1.844 0 3.168 1.766 3.27 4.93h-6.942c.442-3.231 1.837-4.93 3.672-4.93zm8.411 9.69c-1.091 4.115-3.268 6.255-6.331 6.255-3.574 0-5.856-2.923-5.856-8.16 0-.507.032-1.053.07-1.633h12.764c-.647-4.62-3.881-7.206-8.921-7.206-5.648 0-9.562 3.841-9.562 9.248 0 5.508 3.914 9.383 9.734 9.383 4.631 0 7.628-2.344 9.021-7.072l-.919-.814zm.935 9.291c-.761 0-1.318-.595-1.318-1.346 0-.74.557-1.348 1.297-1.348h.01c.752 0 1.297.607 1.297 1.348 0 .75-.545 1.357-1.286 1.346zm0-3.032h-.01c-.968 0-1.74.75-1.74 1.686 0 .956.772 1.695 1.74 1.695.977 0 1.728-.74 1.728-1.695 0-.936-.751-1.686-1.718-1.686zM184.652 61.997v-4.15c-1.533.444-3.814.853-6.812 1.225v.409c1.77.135 1.906 1.052 1.906 3.467v6.122c0 3.738-.1 5.54-2.175 6.22v.409a76.955 76.955 0 014.56-.138c1.533 0 3.097.036 4.697.138v-.409c-2.075-.578-2.176-2.482-2.176-6.494v-1.632c0-3.197 1.019-4.863 2.825-4.863.577 0 1.018.239 1.358.68h.445l1.87-5.54c-.24-.035-.476-.035-.682-.035-2.48 0-4.423 1.532-5.816 4.591zm69.68 4.758c0 5.169-.92 7.785-3.611 7.785-1.667 0-2.822-1.493-2.822-3.975 0-3.13 1.972-4.896 5.649-4.896.24 0 .513 0 .784.032v1.054zm5.038.75V65.94c0-2.753 0-4.693-1.46-6.255-1.332-1.462-3.713-2.28-6.949-2.28-2.824 0-5.482.578-7.998 1.77l1.566 5.067h.475c1.022-3.947 2.555-5.782 5.277-5.782 2.623 0 4.051 2.073 4.051 6.086v.135c-8.17.273-12.22 2.176-12.22 5.951 0 3.061 2.757 5.405 7.013 5.405 2.62 0 4.321-.953 5.616-3.23a9.76 9.76 0 001.192 2.79h1.498c1.396 0 2.79.032 4.183.065v-.578c-2.005-.44-2.244-2.752-2.244-7.58zm30.122 8.518h-.185v-.484a.99.99 0 01.216-.02c.248 0 .36.103.36.257 0 .175-.174.247-.39.247zm.464.122v-.02c.205-.061.35-.205.35-.4a.463.463 0 00-.165-.36c-.124-.083-.268-.134-.587-.134a3.2 3.2 0 00-.649.062v1.675h.392v-.667h.185c.216 0 .32.082.35.266.052.196.083.34.134.401h.422c-.042-.05-.072-.153-.124-.41-.05-.227-.144-.36-.308-.413zM94.432 68.796v-4.69c0-2.145 0-4.216.102-6.223-1.975.476-4.29.85-6.912 1.189v.409c1.77.135 1.907 1.052 1.907 3.467v6.122c0 3.703-.101 5.54-2.178 6.22v.409a77.093 77.093 0 014.562-.138c1.53 0 3.096.036 4.697.138v-.409c-2.076-.578-2.178-2.482-2.178-6.494zm-10.518-.115V54.488c0-2 .765-3.02 2.552-3.317v-.595c-1.959.085-3.915.171-5.872.171-1.275 0-2.552-.043-3.83-.086l-6.679 17c-3.32-5.736-6.256-11.39-8.979-16.957-1.36 0-2.724.043-4.085.043-1.914 0-3.83-.043-5.66-.086v.551c2.68.853 2.893 2.595 2.893 6.165v8.372c0 6.97-.936 10.754-4.254 12.154v.511c1.915-.085 3.7-.127 5.319-.127 1.318 0 2.98.042 5.02.127v-.554c-3.787-1.357-4.51-4.972-4.51-12.11V55.122a841.695 841.695 0 0111.063 23.973h.341l9.531-24.356v13.94c0 5.865 0 8.587-2.978 9.18v.554c2.594-.127 4.723-.127 6.509-.127 1.787 0 4.042 0 6.682.127v-.554c-2.81-.593-3.063-3.145-3.063-9.18zm90.665-1.176v-5.406c0-.374 0-1.804.069-4.216-2.009.476-4.32.885-6.906 1.222v.41c1.768.137 1.906 1.018 1.906 3.433v4.455c0 4.215-1.772 6.696-4.254 6.696-2.556 0-3.578-2.142-3.578-6.696v-9.52c-1.53.442-3.777.85-6.773 1.222v.41c1.772.137 1.909 1.018 1.909 3.433v4.795c0 5.576 2.245 8.329 6.805 8.329 2.93 0 4.939-1.19 6.06-3.57.17 1.02.442 2.038.747 3.095h1.767c1.603 0 3.1.032 4.496.065v-.578c-2.01-.44-2.248-2.752-2.248-7.58zm21.062-10.608c1.563 0 2.833-.992 2.833-2.216 0-1.222-1.27-2.215-2.833-2.215-1.564 0-2.834.993-2.834 2.215 0 1.224 1.27 2.216 2.834 2.216zm-104.125 0c1.566 0 2.834-.992 2.834-2.216 0-1.222-1.268-2.215-2.834-2.215-1.565 0-2.834.993-2.834 2.215 0 1.224 1.27 2.216 2.834 2.216zm17.075 7.649c-3.267-.749-5.105-.818-5.105-3.163 0-1.597 1.465-2.957 3.37-2.957 2.349 0 4.323 1.766 5.276 5.1l.442.033 1.567-4.62c-2.112-.989-4.424-1.498-6.876-1.498-5.277 0-8.41 2.517-8.41 5.677 0 3.265 2.077 4.252 6.4 5.339 2.998.747 4.496 1.222 4.496 3.194 0 1.94-1.67 3.331-4.017 3.331-2.997 0-5.008-2.14-5.72-6.323l-.477-.067-1.904 5.61c2.313 1.188 5.069 1.87 7.963 1.87 5.923 0 9.326-2.447 9.326-6.22 0-3.198-2.075-4.357-6.33-5.306zm35.87 10.436c-2.993 0-4.628-2.82-4.628-8.328 0-5.407 1.669-8.194 4.629-8.194 3.065 0 4.699 2.787 4.699 8.227 0 5.509-1.634 8.295-4.7 8.295zm.07-17.541c-6.162 0-10.245 3.773-10.245 9.314 0 5.339 4.118 9.248 10.109 9.248 6.265 0 10.282-3.84 10.282-9.282 0-5.474-4.051-9.28-10.147-9.28zm-17.632 7.105c-3.27-.749-5.105-.818-5.105-3.163 0-1.597 1.462-2.957 3.37-2.957 2.347 0 4.322 1.766 5.275 5.1l.443.033 1.565-4.62c-2.11-.989-4.424-1.498-6.877-1.498-5.274 0-8.407 2.517-8.407 5.677 0 3.265 2.077 4.252 6.397 5.339 2.998.747 4.496 1.222 4.496 3.194 0 1.94-1.668 3.331-4.016 3.331-2.997 0-5.006-2.14-5.718-6.323l-.48-.067-1.904 5.61c2.315 1.188 5.072 1.87 7.965 1.87 5.923 0 9.327-2.447 9.327-6.22 0-3.198-2.077-4.357-6.33-5.306z"/><path fill="#5E0009" d="M301.613 111.786v-12.35h5.607l.656-2.285h-6.263v-1.906c0-2.883.11-5.222.273-6.912h-.873c-2.23 4.192-5.389 7.185-9.853 9.525l-.27 1.578h3.046l-.107 13.163v3.92c0 4.84.22 7.614 2.067 8.486 6.372.052 9.415.104 9.415.104v-.648c-3.371-.981-3.698-4.787-3.698-12.675zm-25.365-9.582c-6.196-1.224-10.686-1.495-13.067-3.402-1.499-1.224-2.314-2.786-2.314-4.625 0-4.28 3.944-7.68 10.139-7.68 6.868 0 11.224 4.011 13.132 11.968h.886l3.128-10.815c-5.104-2.31-11.16-3.6-17.417-3.6-12.728 0-20.416 5.984-20.416 14.14 0 3.4 1.426 6.53 3.874 8.707 2.996 2.653 7.489 3.605 13.275 4.756 7.618 1.496 11.972 2.585 11.972 7.687 0 5.574-4.149 9.04-11.29 9.04-8.511 0-14.089-5.165-15.792-14.684h-.813l-3.743 12.647c5.506 2.789 12.654 4.423 20.821 4.423 13.267 0 21.5-6.87 21.5-15.712 0-7.005-4.557-11.014-13.875-12.85zm-39.191 11.92v-7.506c0-3.43 0-6.744.162-9.955-3.157.761-6.86 1.36-11.057 1.902v.654c2.838.217 3.056 1.684 3.056 5.548v9.795c0 5.925-.168 8.863-3.484 9.952v.654c2.773-.163 5.173-.22 7.292-.22 2.453 0 4.953.057 7.515.22v-.654c-3.322-.924-3.484-3.972-3.484-10.39zm111.542-2.338v-12.35h5.61l.654-2.285h-6.264v-1.906c0-2.883.113-5.222.272-6.912h-.866c-2.234 4.192-5.39 7.185-9.853 9.525l-.274 1.578h3.05l-.107 13.163v3.92c0 4.84.214 7.614 2.065 8.486 6.368.052 9.418.104 9.418.104v-.648c-3.377-.981-3.705-4.787-3.705-12.675zm19.577-14.2c2.949 0 5.066 2.825 5.23 7.887h-11.103c.708-5.169 2.939-7.887 5.873-7.887zm13.451 15.505c-1.745 6.583-5.227 10.006-10.125 10.006-5.716 0-9.365-4.676-9.365-13.054 0-.812.052-1.686.111-2.614h20.414c-1.035-7.392-6.207-11.53-14.267-11.53-9.031 0-15.292 6.147-15.292 14.798 0 8.813 6.26 15.012 15.567 15.012 7.406 0 12.198-3.75 14.427-11.315l-1.47-1.303zm1.495 14.865c-1.218 0-2.108-.953-2.108-2.154 0-1.185.89-2.156 2.075-2.156h.016c1.202 0 2.074.97 2.074 2.156 0 1.201-.872 2.17-2.057 2.154zm0-4.852h-.017c-1.546 0-2.781 1.2-2.781 2.698 0 1.529 1.235 2.712 2.781 2.712 1.563 0 2.764-1.183 2.764-2.712 0-1.498-1.2-2.698-2.747-2.698zm-167.79-19.858v-6.64c-2.452.71-6.1 1.364-10.893 1.96v.653c2.83.217 3.048 1.684 3.048 5.548v9.795c0 5.98-.16 8.863-3.479 9.952v.654c2.77-.163 5.165-.22 7.293-.22 2.45 0 4.952.057 7.51.22v-.654c-3.318-.924-3.478-3.972-3.478-10.39v-2.611c0-5.116 1.629-7.782 4.516-7.782.924 0 1.629.383 2.172 1.09h.711l2.992-8.866c-.383-.056-.762-.056-1.091-.056-3.966 0-7.073 2.452-9.3 7.347zm111.43 7.611c0 8.271-1.47 12.457-5.774 12.457-2.665 0-4.513-2.389-4.513-6.36 0-5.01 3.154-7.834 9.033-7.834.383 0 .82 0 1.254.052v1.685zm8.058 1.2v-2.503c0-4.405 0-7.508-2.336-10.008-2.13-2.34-5.938-3.647-11.112-3.647-4.516 0-8.767.924-12.79 2.832l2.504 8.107h.76c1.634-6.316 4.085-9.252 8.438-9.252 4.195 0 6.478 3.317 6.478 9.737v.217c-13.064.436-19.542 3.48-19.542 9.522 0 4.897 4.41 8.647 11.215 8.647 4.19 0 6.911-1.524 8.98-5.167a15.62 15.62 0 001.907 4.463h2.396c2.233 0 4.461.052 6.69.104v-.924c-3.207-.705-3.589-4.404-3.589-12.128zm48.17 13.63h-.296v-.774c.065-.015.18-.033.345-.033.396 0 .577.165.577.412 0 .28-.28.395-.626.395zm.741.196v-.032c.328-.099.559-.329.559-.642a.742.742 0 00-.262-.576c-.2-.131-.429-.214-.94-.214-.444 0-.79.05-1.037.1v2.68h.626v-1.068h.297c.345 0 .51.132.558.426.084.313.133.544.216.642h.675c-.067-.08-.116-.245-.2-.657-.08-.363-.23-.576-.492-.66zM71.054 114.124v-7.506c0-3.43 0-6.744.164-9.955-3.16.761-6.86 1.36-11.053 1.902v.654c2.83.217 3.05 1.684 3.05 5.548v9.795c0 5.925-.163 8.863-3.484 9.952v.654a123.34 123.34 0 017.295-.22c2.446 0 4.95.057 7.511.22v-.654c-3.32-.924-3.483-3.972-3.483-10.39zm-16.82-.185V91.23c0-3.201 1.224-4.832 4.08-5.308v-.951c-3.13.135-6.26.274-9.389.274-2.039 0-4.081-.07-6.124-.139l-10.681 27.2c-5.311-9.178-10.005-18.224-14.36-27.131-2.176 0-4.355.07-6.533.07-3.06 0-6.123-.07-9.05-.139v.882c4.285 1.365 4.626 4.152 4.626 9.865v13.395c0 11.152-1.496 17.206-6.803 19.446v.818c3.063-.136 5.918-.204 8.506-.204 2.108 0 4.766.068 8.03.204v-.887c-6.058-2.171-7.214-7.955-7.214-19.377V92.247c6.192 12.922 12.111 25.707 17.691 38.356h.546l15.242-38.969v22.305c0 9.383 0 13.739-4.764 14.687v.887c4.149-.204 7.554-.204 10.41-.204 2.858 0 6.464 0 10.686.204v-.887c-4.493-.948-4.898-5.032-4.898-14.687zm144.99-1.882v-8.648c0-.6 0-2.887.11-6.746-3.213.761-6.91 1.415-11.043 1.956v.654c2.827.22 3.046 1.63 3.046 5.494v7.128c0 6.744-2.832 10.714-6.802 10.714-4.087 0-5.722-3.427-5.722-10.714V96.663c-2.445.706-6.04 1.36-10.83 1.956v.654c2.832.22 3.052 1.63 3.052 5.494v7.672c0 8.92 3.59 13.326 10.882 13.326 4.686 0 7.898-1.905 9.692-5.712.27 1.632.705 3.261 1.194 4.952h2.826c2.563 0 4.956.052 7.19.104v-.924c-3.213-.705-3.595-4.404-3.595-12.128zm33.681-16.972c2.5 0 4.53-1.587 4.53-3.546 0-1.954-2.03-3.543-4.53-3.543-2.501 0-4.532 1.59-4.532 3.543 0 1.959 2.03 3.546 4.532 3.546zm-166.514 0c2.505 0 4.532-1.587 4.532-3.546 0-1.954-2.027-3.543-4.532-3.543-2.502 0-4.531 1.59-4.531 3.543 0 1.959 2.03 3.546 4.531 3.546zm27.307 12.238c-5.226-1.197-8.164-1.308-8.164-5.06 0-2.555 2.342-4.732 5.389-4.732 3.756 0 6.913 2.827 8.437 8.16l.707.054 2.506-7.394c-3.377-1.581-7.076-2.396-10.997-2.396-8.438 0-13.447 4.028-13.447 9.083 0 5.224 3.32 6.804 10.235 8.543 4.793 1.196 7.188 1.956 7.188 5.111 0 3.102-2.67 5.33-6.424 5.33-4.792 0-8.008-3.426-9.147-10.117l-.763-.107-3.045 8.976c3.699 1.9 8.107 2.99 12.734 2.99 9.473 0 14.915-3.915 14.915-9.952 0-5.115-3.319-6.97-10.124-8.489zm57.362 16.699c-4.786 0-7.4-4.512-7.4-13.325 0-8.651 2.667-13.111 7.4-13.111 4.902 0 7.515 4.46 7.515 13.163 0 8.814-2.613 13.273-7.515 13.273zm.11-28.067c-9.853 0-16.383 6.037-16.383 14.902 0 8.543 6.586 14.798 16.166 14.798 10.02 0 16.444-6.145 16.444-14.851 0-8.758-6.48-14.849-16.227-14.849zm-28.195 11.368c-5.228-1.197-8.164-1.308-8.164-5.06 0-2.555 2.337-4.732 5.388-4.732 3.755 0 6.913 2.827 8.437 8.16l.708.054 2.504-7.394c-3.376-1.581-7.076-2.396-10.998-2.396-8.435 0-13.445 4.028-13.445 9.083 0 5.224 3.322 6.804 10.23 8.543 4.794 1.196 7.19 1.956 7.19 5.111 0 3.102-2.667 5.33-6.422 5.33-4.792 0-8.005-3.426-9.144-10.117l-.767-.107-3.045 8.976c3.7 1.9 8.11 2.99 12.736 2.99 9.472 0 14.916-3.915 14.916-9.952 0-5.115-3.32-6.97-10.124-8.489z"/><path fill="#FFF" fill-rule="nonzero" d="M0 26v-4h30v4H0zm0 10v-4h30v4H0zm0-24h30v4H0v-4zm0 55v-4h30v4H0zm0 10v-4h30v4H0zm0-24h30v4H0v-4zm0 149v-4h30v4H0zm0 10v-4h30v4H0zm0-24h30v4H0v-4zm0 55v-4h30v4H0zm0 10v-4h30v4H0zm0-24h30v4H0v-4z"/></g></svg>